<svg width="17" height="21" viewBox="0 0 17 21" fill="none" xmlns="http://www.w3.org/2000/svg">
<path d="M12.4932 5.13379C14.1943 5.13379 15.502 5.79395 16.416 7.11426L16.3145 7.17773C16.2467 7.22005 16.1748 7.27083 16.0986 7.33008C16.0225 7.38932 15.9251 7.46973 15.8066 7.57129C15.6966 7.66439 15.5866 7.77018 15.4766 7.88867C15.3665 8.00716 15.2523 8.14258 15.1338 8.29492C15.0153 8.4388 14.9053 8.60384 14.8037 8.79004C14.7106 8.97624 14.6217 9.17513 14.5371 9.38672C14.4609 9.59831 14.3975 9.83529 14.3467 10.0977C14.3044 10.3516 14.2832 10.6139 14.2832 10.8848C14.2832 11.4349 14.3721 11.9512 14.5498 12.4336C14.736 12.9076 14.9476 13.2842 15.1846 13.5635C15.4215 13.8428 15.6797 14.0924 15.959 14.3125C16.2467 14.5326 16.4626 14.6807 16.6064 14.7568C16.7588 14.833 16.8646 14.8796 16.9238 14.8965C16.9154 14.9642 16.8688 15.1123 16.7842 15.3408C16.708 15.5693 16.5557 15.9206 16.3271 16.3945C16.1071 16.86 15.8532 17.3001 15.5654 17.7148C15.3031 18.0957 15.083 18.4004 14.9053 18.6289C14.7275 18.8574 14.5033 19.1071 14.2324 19.3779C13.9616 19.6488 13.6823 19.8477 13.3945 19.9746C13.1152 20.1016 12.8148 20.165 12.4932 20.165C12.0531 20.165 11.5326 20.0339 10.9316 19.7715C10.3307 19.5007 9.7679 19.3652 9.24316 19.3652C8.70996 19.3652 8.12174 19.5049 7.47852 19.7842C6.84375 20.055 6.33171 20.1904 5.94238 20.1904C5.64616 20.1904 5.36263 20.1312 5.0918 20.0127C4.82943 19.8942 4.56283 19.6995 4.29199 19.4287C4.02116 19.1579 3.78841 18.904 3.59375 18.667C3.40755 18.4215 3.16211 18.0872 2.85742 17.6641C2.25651 16.8008 1.76139 15.7809 1.37207 14.6045C0.982747 13.4196 0.788086 12.2474 0.788086 11.0879C0.788086 10.1569 0.931966 9.31055 1.21973 8.54883C1.50749 7.78711 1.88411 7.16504 2.34961 6.68262C2.82357 6.2002 3.35254 5.83203 3.93652 5.57812C4.52897 5.31576 5.13835 5.18457 5.76465 5.18457C6.23861 5.18457 6.83529 5.32845 7.55469 5.61621C8.27409 5.90397 8.75228 6.04785 8.98926 6.04785C9.19238 6.04785 9.48014 5.97168 9.85254 5.81934C10.2334 5.66699 10.6608 5.51465 11.1348 5.3623C11.6087 5.20996 12.0615 5.13379 12.4932 5.13379ZM11.7822 3.50879C11.4521 3.91504 11.0332 4.25358 10.5254 4.52441C10.0176 4.78678 9.53939 4.91797 9.09082 4.91797C8.99772 4.91797 8.90885 4.90951 8.82422 4.89258C8.79883 4.79102 8.78613 4.67253 8.78613 4.53711C8.78613 4.05469 8.8877 3.5765 9.09082 3.10254C9.30241 2.62012 9.56478 2.20117 9.87793 1.8457C10.2334 1.42253 10.682 1.07129 11.2236 0.791992C11.7738 0.512695 12.2985 0.364583 12.7979 0.347656C12.8232 0.466146 12.8359 0.597331 12.8359 0.741211C12.8359 1.73991 12.4847 2.66243 11.7822 3.50879Z" fill="black"/>
</svg>
