<svg width="24" height="24" viewBox="0 0 24 24" fill="none" xmlns="http://www.w3.org/2000/svg">
<circle cx="11.8853" cy="6.97123" r="4.97123" stroke="#828282" stroke-width="1.5" stroke-linecap="round" stroke-linejoin="round"/>
<path fill-rule="evenodd" clip-rule="evenodd" d="M4.00002 18.8565C3.99868 18.507 4.07684 18.1618 4.22858 17.847C4.70475 16.8946 6.04756 16.3899 7.1618 16.1613C7.96539 15.9898 8.78008 15.8753 9.5998 15.8185C11.1175 15.6852 12.6439 15.6852 14.1615 15.8185C14.9812 15.8759 15.7958 15.9905 16.5995 16.1613C17.7138 16.3899 19.0566 16.847 19.5327 17.847C19.8379 18.4887 19.8379 19.2337 19.5327 19.8755C19.0566 20.8754 17.7138 21.3326 16.5995 21.5516C15.7969 21.7302 14.9819 21.848 14.1615 21.904C12.9263 22.0087 11.6853 22.0278 10.4474 21.9611C10.1617 21.9611 9.8855 21.9611 9.5998 21.904C8.7825 21.8487 7.97063 21.7309 7.17132 21.5516C6.04756 21.3326 4.71427 20.8754 4.22858 19.8755C4.07761 19.557 3.99953 19.2089 4.00002 18.8565Z" stroke="#828282" stroke-width="1.5" stroke-linecap="round" stroke-linejoin="round"/>
</svg>
