<svg width="20" height="22" viewBox="0 0 20 22" fill="none" xmlns="http://www.w3.org/2000/svg">
<path d="M12.4185 1.73761C11.4494 1.26254 10.3667 1 9.28867 1H9.21106C6.07728 1 2.90469 3.21842 2.60393 6.42703C2.54571 7.0935 2.54571 7.7695 2.54571 8.43598C2.3667 9.29831 1.9545 10.0975 1.35236 10.7496C0.990599 11.2925 0.782951 11.9202 0.750825 12.5681V12.7871C0.732241 13.6526 1.028 14.4963 1.58521 15.1674C2.33576 15.9479 3.34914 16.435 4.43762 16.5384C7.63303 16.8812 10.857 16.8812 14.0524 16.5384C15.1421 16.4393 16.157 15.9515 16.9048 15.1674C17.4708 14.4968 17.7706 13.648 17.7489 12.7776V12.5681C17.7198 11.9227 17.5118 11.2972 17.1474 10.7591C16.5472 10.1019 16.1354 9.3003 15.954 8.43598C15.9194 7.95986 15.9392 7.47889 15.9321 7" stroke="#BDBDBD" stroke-width="1.5" stroke-linecap="round" stroke-linejoin="round"/>
<path d="M6.80493 19.8518C7.30421 20.4785 8.03739 20.884 8.84222 20.9788C9.64706 21.0735 10.4572 20.8495 11.0933 20.3564C11.2889 20.2106 11.4649 20.041 11.6172 19.8518" stroke="#BDBDBD" stroke-width="1.5" stroke-linecap="round" stroke-linejoin="round"/>
<circle cx="16.4676" cy="2.9222" r="1.9222" stroke="#BDBDBD" stroke-width="1.5" stroke-linecap="round" stroke-linejoin="round"/>
</svg>
