<svg width="18" height="22" viewBox="0 0 18 22" fill="none" xmlns="http://www.w3.org/2000/svg">
<circle cx="8.8853" cy="5.97123" r="4.97123" stroke="#BDBDBD" stroke-width="1.5" stroke-linecap="round" stroke-linejoin="round"/>
<path fill-rule="evenodd" clip-rule="evenodd" d="M1.00002 17.8565C0.998681 17.507 1.07684 17.1618 1.22858 16.847C1.70475 15.8946 3.04756 15.3899 4.1618 15.1613C4.96539 14.9898 5.78008 14.8753 6.5998 14.8185C8.11745 14.6852 9.64387 14.6852 11.1615 14.8185C11.9812 14.8759 12.7958 14.9905 13.5995 15.1613C14.7138 15.3899 16.0566 15.847 16.5327 16.847C16.8379 17.4887 16.8379 18.2337 16.5327 18.8755C16.0566 19.8754 14.7138 20.3326 13.5995 20.5516C12.7969 20.7302 11.9819 20.848 11.1615 20.904C9.92628 21.0087 8.68527 21.0278 7.44738 20.9611C7.16168 20.9611 6.8855 20.9611 6.5998 20.904C5.7825 20.8487 4.97063 20.7309 4.17132 20.5516C3.04756 20.3326 1.71427 19.8754 1.22858 18.8755C1.07761 18.557 0.999534 18.2089 1.00002 17.8565Z" stroke="#BDBDBD" stroke-width="1.5" stroke-linecap="round" stroke-linejoin="round"/>
</svg>
