<svg width="16" height="22" viewBox="0 0 16 22" fill="none" xmlns="http://www.w3.org/2000/svg">
<path d="M10.818 6.42039H4.50049" stroke="#BDBDBD" stroke-width="1.5" stroke-linecap="round" stroke-linejoin="round"/>
<path d="M10.818 9.93797H4.50049" stroke="#BDBDBD" stroke-width="1.5" stroke-linecap="round" stroke-linejoin="round"/>
<path d="M6.91111 13.4477H4.50049" stroke="#BDBDBD" stroke-width="1.5" stroke-linecap="round" stroke-linejoin="round"/>
<path d="M14.9999 6.62049L14.2499 6.6205L14.2499 6.62512L14.9999 6.62049ZM14.9999 3.11267L15.7499 3.11267V3.11265L14.9999 3.11267ZM14.5885 1.97681L14.0122 2.45681L14.0122 2.45681L14.5885 1.97681ZM14.1305 1.42698L14.7068 0.946983V0.946983L14.1305 1.42698ZM12.3494 1.40971L12.9162 1.90079L12.9162 1.90079L12.3494 1.40971ZM12.3108 1.45424L11.7439 0.963167L11.7439 0.963167L12.3108 1.45424ZM10.5903 1.42037L11.176 0.951987V0.951986L10.5903 1.42037ZM8.86972 1.3865L8.30285 0.895421L8.30285 0.895424L8.86972 1.3865ZM8.81104 1.45424L9.37791 1.94532L9.37791 1.94531L8.81104 1.45424ZM7.0905 1.42037L7.67627 0.951986L7.67627 0.951985L7.0905 1.42037ZM5.36997 1.3865L4.8031 0.895424L4.8031 0.895425L5.36997 1.3865ZM5.30268 1.46418L5.86955 1.95525L5.86956 1.95525L5.30268 1.46418ZM3.59896 1.43064L4.18473 0.962254L4.18473 0.962253L3.59896 1.43064ZM1.88148 1.41331L1.30528 0.933199L1.30528 0.9332L1.88148 1.41331ZM1.39955 1.99168L1.97574 2.47179L1.97575 2.47179L1.39955 1.99168ZM1.00024 3.09347L0.250244 3.09336L1.00024 3.09347ZM1.00014 11.0001L1.75014 11.0001V11L1.00014 11.0001ZM1.00024 18.9067L0.250244 18.9068L1.00024 18.9067ZM1.39955 20.0085L1.97575 19.5284L1.97574 19.5284L1.39955 20.0085ZM1.88148 20.5869L1.30528 21.067H1.30528L1.88148 20.5869ZM3.59896 20.5695L4.18473 21.0379H4.18473L3.59896 20.5695ZM5.30268 20.536L5.86956 20.0449L5.86955 20.0449L5.30268 20.536ZM5.36997 20.6137L4.8031 21.1048H4.8031L5.36997 20.6137ZM7.0905 20.5798L7.67627 21.0482L7.67627 21.0482L7.0905 20.5798ZM8.81104 20.5459L9.37791 20.0549L9.37791 20.0549L8.81104 20.5459ZM8.86972 20.6137L8.30285 21.1048L8.30285 21.1048L8.86972 20.6137ZM10.5903 20.5798L11.176 21.0482V21.0482L10.5903 20.5798ZM12.3108 20.5459L11.7439 21.037L11.7439 21.037L12.3108 20.5459ZM12.3494 20.5905L12.9162 20.0994H12.9162L12.3494 20.5905ZM14.1305 20.5732L14.7068 21.0532L14.1305 20.5732ZM14.5885 20.0234L14.0122 19.5434L14.0122 19.5434L14.5885 20.0234ZM14.9999 18.8875L15.7499 18.8875V18.8875L14.9999 18.8875ZM14.9999 15.3797L14.2499 15.3751V15.3797L14.9999 15.3797ZM15 15.3574H15.75V15.3574L15 15.3574ZM15 11.0001L14.25 11.0001V11.0001L15 11.0001ZM15 6.64276L15.75 6.64277V6.64276H15ZM15.7499 6.62049L15.7499 3.11267L14.2499 3.11268L14.2499 6.6205L15.7499 6.62049ZM15.7499 3.11265C15.7499 2.52144 15.5426 1.95042 15.1647 1.49681L14.0122 2.45681C14.1661 2.64156 14.2499 2.87311 14.2499 3.11269L15.7499 3.11265ZM15.1647 1.49682L14.7068 0.946983L13.5542 1.90697L14.0122 2.45681L15.1647 1.49682ZM14.7068 0.946983C13.9494 0.0376511 12.5574 0.0241553 11.7825 0.91864L12.9162 1.90079C13.0853 1.70565 13.389 1.70859 13.5542 1.90697L14.7068 0.946983ZM11.7825 0.918639L11.7439 0.963167L12.8777 1.94532L12.9162 1.90079L11.7825 0.918639ZM11.7439 0.963167C11.5927 1.13771 11.3202 1.13235 11.176 0.951987L10.0045 1.88875C10.7341 2.80125 12.1127 2.82839 12.8777 1.94532L11.7439 0.963167ZM11.176 0.951986C10.4464 0.0394888 9.06785 0.0123472 8.30285 0.895421L9.4366 1.87757C9.5878 1.70303 9.86027 1.70839 10.0045 1.88875L11.176 0.951986ZM8.30285 0.895424L8.24416 0.96317L9.37791 1.94531L9.4366 1.87757L8.30285 0.895424ZM8.24416 0.963167C8.09296 1.13771 7.82049 1.13235 7.67627 0.951986L6.50474 1.88875C7.23439 2.80125 8.61291 2.82839 9.37791 1.94532L8.24416 0.963167ZM7.67627 0.951985C6.94662 0.0394889 5.5681 0.0123469 4.8031 0.895424L5.93685 1.87757C6.08805 1.70303 6.36052 1.70839 6.50474 1.88875L7.67627 0.951985ZM4.8031 0.895425L4.73581 0.973104L5.86956 1.95525L5.93685 1.87757L4.8031 0.895425ZM4.73581 0.973103C4.58908 1.14248 4.32468 1.13727 4.18473 0.962254L3.0132 1.89902C3.73858 2.80618 5.10904 2.83316 5.86955 1.95525L4.73581 0.973103ZM4.18473 0.962253C3.45027 0.0437449 2.05812 0.0296963 1.30528 0.933199L2.45767 1.89341C2.60291 1.7191 2.8715 1.72181 3.0132 1.89902L4.18473 0.962253ZM1.30528 0.9332L0.82336 1.51157L1.97575 2.47179L2.45767 1.89341L1.30528 0.9332ZM0.823361 1.51157C0.453408 1.95556 0.250329 2.51457 0.250244 3.09336L1.75024 3.09358C1.75028 2.86646 1.8298 2.64694 1.97574 2.47179L0.823361 1.51157ZM0.250244 3.09336C0.249889 5.51356 0.249982 8.26393 0.250142 11.0001L1.75014 11C1.74998 8.26384 1.74989 5.51361 1.75024 3.09358L0.250244 3.09336ZM1.75024 18.9066C1.74989 16.4866 1.74998 13.7363 1.75014 11.0001L0.250142 11C0.249982 13.7363 0.249889 16.4866 0.250244 18.9068L1.75024 18.9066ZM1.97574 19.5284C1.8298 19.3532 1.75028 19.1337 1.75024 18.9066L0.250244 18.9068C0.250329 19.4856 0.453408 20.0446 0.823361 20.4886L1.97574 19.5284ZM2.45767 20.1068L1.97575 19.5284L0.82336 20.4886L1.30528 21.067L2.45767 20.1068ZM3.0132 20.1012C2.8715 20.2784 2.60291 20.2811 2.45767 20.1068L1.30528 21.067C2.05812 21.9705 3.45027 21.9564 4.18473 21.0379L3.0132 20.1012ZM5.86955 20.0449C5.10904 19.167 3.73858 19.194 3.0132 20.1012L4.18473 21.0379C4.32468 20.8629 4.58908 20.8577 4.73581 21.0271L5.86955 20.0449ZM5.93685 20.1226L5.86956 20.0449L4.73581 21.0271L4.8031 21.1048L5.93685 20.1226ZM6.50474 20.1114C6.36052 20.2918 6.08805 20.2972 5.93685 20.1226L4.8031 21.1048C5.5681 21.9878 6.94662 21.9607 7.67627 21.0482L6.50474 20.1114ZM9.37791 20.0549C8.61291 19.1718 7.23439 19.1989 6.50474 20.1114L7.67627 21.0482C7.82049 20.8678 8.09296 20.8625 8.24416 21.037L9.37791 20.0549ZM9.4366 20.1226L9.37791 20.0549L8.24416 21.037L8.30285 21.1048L9.4366 20.1226ZM10.0045 20.1114C9.86027 20.2918 9.5878 20.2972 9.4366 20.1226L8.30285 21.1048C9.06785 21.9878 10.4464 21.9607 11.176 21.0482L10.0045 20.1114ZM12.8777 20.0549C12.1127 19.1718 10.7341 19.1989 10.0045 20.1114L11.176 21.0482C11.3202 20.8678 11.5927 20.8625 11.7439 21.037L12.8777 20.0549ZM12.9162 20.0994L12.8777 20.0549L11.7439 21.037L11.7825 21.0815L12.9162 20.0994ZM13.5542 20.0932C13.389 20.2916 13.0853 20.2945 12.9162 20.0994L11.7825 21.0815C12.5574 21.976 13.9494 21.9625 14.7068 21.0532L13.5542 20.0932ZM14.0122 19.5434L13.5542 20.0932L14.7068 21.0532L15.1647 20.5034L14.0122 19.5434ZM14.2499 18.8875C14.2499 19.1271 14.1661 19.3586 14.0122 19.5434L15.1647 20.5034C15.5426 20.0498 15.7499 19.4787 15.7499 18.8875L14.2499 18.8875ZM14.2499 15.3797L14.2499 18.8875L15.7499 18.8875L15.7499 15.3797L14.2499 15.3797ZM15.7499 15.3843C15.75 15.3754 15.75 15.3665 15.75 15.3574H14.25C14.25 15.3632 14.25 15.3691 14.2499 15.3751L15.7499 15.3843ZM15.75 15.3574L15.75 11.0001L14.25 11.0001L14.25 15.3574L15.75 15.3574ZM14.25 6.64276L14.25 11.0001L15.75 11.0001L15.75 6.64277L14.25 6.64276ZM14.2499 6.62512C14.25 6.63106 14.25 6.63694 14.25 6.64276H15.75C15.75 6.63373 15.75 6.62476 15.7499 6.61586L14.2499 6.62512Z" fill="#BDBDBD"/>
</svg>
