<svg width="19" height="20" viewBox="0 0 19 20" fill="none" xmlns="http://www.w3.org/2000/svg">
<path fill-rule="evenodd" clip-rule="evenodd" d="M12.4482 0.753001C11.4701 0.266755 10.3766 0 9.29522 0H9.20577C7.16935 0 5.11106 0.941697 3.827 2.51186C2.96333 3.58852 2.54392 4.68834 2.54392 6.3703V6.79633C2.54392 8.05226 2.23384 8.79253 1.48049 9.64559C0.927901 10.2741 0.75 11.0808 0.75 11.956C0.75 12.8302 1.03822 13.6601 1.61367 14.3339C2.36602 15.1417 3.42846 15.6573 4.51375 15.747C6.08505 15.9263 7.65634 15.9937 9.2505 15.9937C10.8437 15.9937 12.4159 15.8809 13.9872 15.747C15.0715 15.6573 16.134 15.1417 16.8873 14.3339C17.4628 13.6601 17.75 12.8302 17.75 11.956C17.75 11.0808 17.5731 10.2741 17.0195 9.64559C16.289 8.79253 15.9571 8.05226 15.9571 6.79633V6.3703C15.9571 6.23954 15.9547 6.11251 15.9499 5.98891C13.8809 5.83543 12.25 4.10817 12.25 2C12.25 1.56458 12.3196 1.14541 12.4482 0.753001ZM7.21318 17.2279C6.78582 17.3266 6.32367 17.5573 6.32367 18.0608C6.34852 18.5402 6.62978 18.9653 7.01938 19.2342C7.52227 19.628 8.11362 19.8767 8.73279 19.9664C9.06276 20.0117 9.39868 20.0107 9.74057 19.9664C10.3588 19.8767 10.9501 19.628 11.454 19.2352C11.8426 18.9653 12.1238 18.5402 12.1487 18.0608C12.1487 17.5573 11.6866 17.3266 11.2592 17.2279C10.7593 17.1222 7.71309 17.1222 7.21318 17.2279Z" fill="#FE877C"/>
<circle cx="16.25" cy="2" r="2" fill="#FE877C"/>
</svg>
