<svg width="13" height="16" viewBox="0 0 13 16" fill="none" xmlns="http://www.w3.org/2000/svg">
<path d="M10.8463 11.0745L11.2443 11.3773L11.2443 11.3773L10.8463 11.0745ZM7.15236 14.5018L6.88047 14.0822L6.87862 14.0834L7.15236 14.5018ZM6.1803 14.5018L5.9095 14.9221L5.91044 14.9227L6.1803 14.5018ZM2.487 11.0745L2.88618 10.7734L2.88484 10.7717L2.487 11.0745ZM6.6623 0.833496C3.29819 0.833496 0.5 3.52435 0.5 6.87867H1.5C1.5 4.09983 3.82699 1.8335 6.6623 1.8335V0.833496ZM12.8333 6.87867C12.8333 3.52386 10.0346 0.833496 6.6623 0.833496V1.8335C9.50685 1.8335 11.8333 4.10032 11.8333 6.87867H12.8333ZM11.2443 11.3773C12.225 10.0881 12.8333 8.54949 12.8333 6.87867H11.8333C11.8333 8.29842 11.3177 9.62907 10.4484 10.7718L11.2443 11.3773ZM7.42425 14.9214C8.8887 13.9725 10.189 12.7643 11.2443 11.3773L10.4484 10.7718C9.4627 12.0674 8.2475 13.1964 6.88048 14.0822L7.42425 14.9214ZM5.91044 14.9227C6.14538 15.0733 6.40246 15.1703 6.6845 15.1667C6.96566 15.1632 7.21177 15.0604 7.42611 14.9202L6.87862 14.0834C6.76894 14.1551 6.70682 14.1664 6.67185 14.1668C6.63778 14.1672 6.57084 14.1582 6.45016 14.0809L5.91044 14.9227ZM2.08782 11.3756C3.13509 12.7641 4.43635 13.973 5.9095 14.9221L6.4511 14.0815C5.07663 13.1959 3.86236 12.0676 2.88618 10.7735L2.08782 11.3756ZM0.5 6.87867C0.5 8.54937 1.10761 10.088 2.08916 11.3774L2.88484 10.7717C2.01504 9.62912 1.5 8.29854 1.5 6.87867H0.5ZM6.66259 8.3866C5.90002 8.3866 5.29644 7.79176 5.29644 7.05132H4.29644C4.29644 8.36549 5.36943 9.3866 6.66259 9.3866V8.3866ZM8.03747 7.05132C8.03747 7.78888 7.42878 8.3866 6.66259 8.3866V9.3866C7.95346 9.3866 9.03747 8.36837 9.03747 7.05132H8.03747ZM6.66259 5.68471C7.41625 5.68471 8.03747 6.30943 8.03747 7.05132H9.03747C9.03747 5.75461 7.96599 4.68471 6.66259 4.68471V5.68471ZM5.29644 7.05132C5.29644 6.30651 5.91252 5.68471 6.66259 5.68471V4.68471C5.35694 4.68471 4.29644 5.75753 4.29644 7.05132H5.29644Z" fill="#4F4F4F"/>
</svg>
