<svg width="14" height="9" viewBox="0 0 14 9" fill="none" xmlns="http://www.w3.org/2000/svg">
<path d="M6.9999 0C6.30034 0 5.73119 0.569152 5.73119 1.26871C5.73119 1.62168 5.87608 1.94142 6.1095 2.17161C5.90738 3.10878 5.07209 3.81322 4.07535 3.81322C3.45968 3.81322 2.9056 3.54447 2.52429 3.11812C2.73887 2.89078 2.87058 2.58441 2.87058 2.24786C2.87058 1.5483 2.30153 0.979145 1.60197 0.979145C0.902403 0.979145 0.333252 1.5483 0.333252 2.24786C0.333252 2.85414 0.760735 3.36247 1.33011 3.48725C1.46516 4.60144 1.75102 6.00756 2.35604 6.9637V8.13444C2.35604 8.35132 2.53182 8.5271 2.7487 8.5271H11.2513C11.4682 8.5271 11.6439 8.35132 11.6439 8.13444V6.96348C12.2488 6.00731 12.5345 4.60127 12.6695 3.48717C13.2389 3.36243 13.6665 2.85409 13.6665 2.24786C13.6665 1.5483 13.0973 0.979146 12.3978 0.979146C11.6982 0.979146 11.1292 1.5483 11.1292 2.24786C11.1292 2.58437 11.2609 2.89072 11.4755 3.11804C11.0941 3.54444 10.54 3.81322 9.92433 3.81322C8.92766 3.81322 8.09234 3.10887 7.89012 2.17178C8.12365 1.94158 8.26862 1.62177 8.26862 1.26871C8.26862 0.569152 7.69946 0 6.9999 0Z" fill="#FF9E00"/>
</svg>
