<svg width="21" height="21" viewBox="0 0 21 21" fill="none" xmlns="http://www.w3.org/2000/svg">
<path d="M20.5555 8.2915H19.75V8.25H10.75V12.25H16.4015C15.577 14.5785 13.3615 16.25 10.75 16.25C7.4365 16.25 4.75 13.5635 4.75 10.25C4.75 6.9365 7.4365 4.25 10.75 4.25C12.2795 4.25 13.671 4.827 14.7305 5.7695L17.559 2.941C15.773 1.2765 13.384 0.25 10.75 0.25C5.2275 0.25 0.75 4.7275 0.75 10.25C0.75 15.7725 5.2275 20.25 10.75 20.25C16.2725 20.25 20.75 15.7725 20.75 10.25C20.75 9.5795 20.681 8.925 20.5555 8.2915Z" fill="#FFC107"/>
<path d="M1.90283 5.5955L5.18833 8.005C6.07733 5.804 8.23033 4.25 10.7498 4.25C12.2793 4.25 13.6708 4.827 14.7303 5.7695L17.5588 2.941C15.7728 1.2765 13.3838 0.25 10.7498 0.25C6.90883 0.25 3.57783 2.4185 1.90283 5.5955Z" fill="#FF3D00"/>
<path d="M10.7502 20.2499C13.3332 20.2499 15.6802 19.2614 17.4547 17.6539L14.3597 15.0349C13.3219 15.8241 12.0539 16.2509 10.7502 16.2499C8.14916 16.2499 5.94066 14.5914 5.10866 12.2769L1.84766 14.7894C3.50266 18.0279 6.86366 20.2499 10.7502 20.2499Z" fill="#4CAF50"/>
<path d="M20.5555 8.2915H19.75V8.25H10.75V12.25H16.4015C16.0071 13.3582 15.2967 14.3266 14.358 15.0355L14.3595 15.0345L17.4545 17.6535C17.2355 17.8525 20.75 15.25 20.75 10.25C20.75 9.5795 20.681 8.925 20.5555 8.2915Z" fill="#1976D2"/>
</svg>
